# This file uses centimeters as units for non-parametric coordinates.

mtllib Base_de_la_estatua.mtl
g default
v -200.000000 -11.898581 200.000000
v -200.000000 11.898581 200.000000
v -200.000000 11.898581 -200.000000
v 200.000000 11.898581 -200.000000
v -200.000000 -11.898581 -200.000000
v 200.000000 -11.898581 -200.000000
v -188.584717 11.898582 188.584717
v 188.584717 11.898582 -188.584717
v -188.584717 11.898582 -188.584717
v -188.584717 23.015011 188.584717
v 188.584717 23.015011 -188.584717
v -188.584717 23.015011 -188.584717
v -175.192017 23.015011 175.192017
v 175.192017 23.015011 -175.192017
v -175.192017 23.015011 -175.192017
v -175.192017 34.018932 175.192017
v 175.192017 34.018932 -175.192017
v -175.192017 34.018932 -175.192017
v -163.839386 34.018932 163.839386
v 163.839386 34.018932 -163.839386
v -163.839386 34.018932 -163.839386
v -163.839386 629.001160 163.839386
v 163.839386 629.001160 -163.839386
v -163.839386 629.001160 -163.839386
v -163.839386 487.947327 -163.839386
v -40.328320 629.001221 -163.839386
v -163.839386 629.001160 -37.773178
v -99.612648 629.001221 -163.839386
v -163.839386 556.468018 -163.839386
v -163.839386 629.001160 -81.200043
v -44.758537 623.941772 -159.317520
v -159.409164 623.941711 -42.295048
v -99.789925 623.941772 -159.317520
v -159.409164 623.941711 -82.606552
v -159.409164 493.006775 -159.317520
v -159.409164 556.611938 -159.317520
v 0.000000 34.018932 -163.839386
v -163.839386 260.983124 -163.839386
v -81.919693 34.018932 -163.839386
v -163.839386 147.501022 -163.839386
v -163.839386 34.018932 0.000000
v -163.839386 34.018932 -81.919693
v -12.760881 51.696377 -151.078506
v -151.078506 243.305664 -151.078506
v -81.919693 51.696377 -151.078506
v -151.078506 147.501022 -151.078506
v -151.078506 51.696377 -81.919693
v -151.078506 51.696377 -12.760881
v 200.000000 11.898581 200.000000
v 200.000000 -11.898581 200.000000
v 188.584717 11.898582 188.584717
v 188.584717 23.015011 188.584717
v 175.192017 23.015011 175.192017
v 175.192017 34.018932 175.192017
v 163.839386 34.018932 163.839386
v 163.839386 629.001160 163.839386
v 163.839386 487.947327 163.839386
v 163.839386 629.001221 40.328320
v 37.773178 629.001160 163.839386
v 163.839386 629.001221 99.612648
v 163.839386 556.468018 163.839386
v 81.200043 629.001160 163.839386
v 159.317520 623.941772 44.758537
v 42.295048 623.941711 159.409164
v 159.317520 623.941772 99.789925
v 82.606552 623.941711 159.409164
v 159.317520 493.006775 159.409164
v 159.317520 556.611938 159.409164
v 163.839386 34.018932 0.000000
v 163.839386 260.983124 163.839386
v 163.839386 34.018932 81.919693
v 163.839386 147.501022 163.839386
v 0.000000 34.018932 163.839386
v 81.919693 34.018932 163.839386
v 151.078506 51.696377 12.760881
v 151.078506 243.305664 151.078506
v 151.078506 51.696377 81.919693
v 151.078506 147.501022 151.078506
v 81.919693 51.696377 151.078506
v 12.760881 51.696377 151.078506
v 175.192017 34.018932 -174.280212
vt 0.375000 0.500000
vt 0.625000 0.500000
vt 0.625000 0.750000
vt 0.375000 0.750000
vt 0.375000 1.000000
vt 0.125000 0.000000
vt 0.375000 0.000000
vt 0.375000 0.250000
vt 0.125000 0.250000
vt 0.375000 0.500000
vt 0.625000 0.500000
vt 0.375000 0.250000
vt 0.375000 0.500000
vt 0.625000 0.500000
vt 0.375000 0.250000
vt 0.375000 0.500000
vt 0.625000 0.500000
vt 0.375000 0.250000
vt 0.375000 0.500000
vt 0.625000 0.500000
vt 0.375000 0.250000
vt 0.375000 0.500000
vt 0.437500 0.500000
vt 0.500000 0.500000
vt 0.625000 0.500000
vt 0.375000 0.250000
vt 0.375000 0.375000
vt 0.375000 0.437500
vt 0.375000 0.500000
vt 0.375000 0.500000
vt 0.469232 0.500000
vt 0.625000 0.500000
vt 0.375000 0.250000
vt 0.375000 0.403819
vt 0.375000 0.403819
vt 0.469232 0.500000
vt 0.424001 0.500000
vt 0.375000 0.436951
vt 0.375000 0.500000
vt 0.375000 0.500000
vt 0.375000 0.436951
vt 0.424001 0.500000
vt 0.375000 0.500000
vt 0.375000 0.500000
vt 0.375000 0.500000
vt 0.500000 0.500000
vt 0.437500 0.500000
vt 0.375000 0.500000
vt 0.375000 0.500000
vt 0.375000 0.437500
vt 0.375000 0.375000
vt 0.375000 0.500000
vt 0.375000 0.750000
vt 0.625000 0.750000
vt 0.625000 0.500000
vt 0.375000 1.000000
vt 0.125000 0.000000
vt 0.125000 0.250000
vt 0.375000 0.250000
vt 0.375000 0.000000
vt 0.625000 0.500000
vt 0.375000 0.500000
vt 0.375000 0.250000
vt 0.625000 0.500000
vt 0.375000 0.500000
vt 0.375000 0.250000
vt 0.625000 0.500000
vt 0.375000 0.500000
vt 0.375000 0.250000
vt 0.625000 0.500000
vt 0.375000 0.500000
vt 0.375000 0.250000
vt 0.625000 0.500000
vt 0.500000 0.500000
vt 0.437500 0.500000
vt 0.375000 0.500000
vt 0.375000 0.437500
vt 0.375000 0.375000
vt 0.375000 0.250000
vt 0.625000 0.500000
vt 0.469232 0.500000
vt 0.375000 0.500000
vt 0.375000 0.500000
vt 0.375000 0.403819
vt 0.375000 0.250000
vt 0.375000 0.403819
vt 0.375000 0.436951
vt 0.424001 0.500000
vt 0.469232 0.500000
vt 0.375000 0.500000
vt 0.375000 0.500000
vt 0.375000 0.436951
vt 0.375000 0.500000
vt 0.424001 0.500000
vt 0.375000 0.500000
vt 0.375000 0.500000
vt 0.375000 0.500000
vt 0.437500 0.500000
vt 0.500000 0.500000
vt 0.375000 0.500000
vt 0.375000 0.375000
vt 0.375000 0.437500
vt 0.624349 0.500000
vn 0.000000 0.000000 -1.000000
vn 0.000000 0.000000 -1.000000
vn 0.000000 0.000000 0.000000
vn 0.000000 0.000000 -1.000000
vn 0.000000 -1.000000 0.000000
vn 0.000000 -1.000000 0.000000
vn 0.000000 -1.000000 0.000000
vn -1.000000 0.000000 0.000000
vn 0.000000 0.000000 0.000000
vn -1.000000 0.000000 0.000000
vn -1.000000 0.000000 0.000000
vn 0.000000 1.000000 0.000000
vn 0.000000 1.000000 0.000000
vn 0.000000 1.000000 0.000000
vn 0.000000 1.000000 0.000000
vn 0.000000 1.000000 0.000000
vn 0.000000 1.000000 0.000000
vn 0.000000 1.000000 0.000000
vn 0.000000 1.000000 0.000000
vn 0.000000 0.000000 -1.000000
vn 0.000000 0.000000 -1.000000
vn 0.000000 0.000000 -1.000000
vn 0.000000 0.000000 -1.000000
vn -1.000000 0.000000 0.000000
vn -1.000000 0.000000 0.000000
vn -1.000000 0.000000 0.000000
vn -1.000000 0.000000 0.000000
vn 0.000000 1.000000 0.000000
vn 0.000000 1.000000 0.000000
vn 0.000000 1.000000 0.000000
vn 0.000000 1.000000 0.000000
vn 0.000000 1.000000 0.000000
vn 0.000000 1.000000 0.000000
vn 0.000000 1.000000 0.000000
vn 0.000000 1.000000 0.000000
vn 0.000000 0.000000 -1.000000
vn 0.000000 0.000000 -1.000000
vn 0.000000 0.000000 -1.000000
vn 0.000000 0.000000 -1.000000
vn -1.000000 0.000000 0.000000
vn -1.000000 0.000000 0.000000
vn -1.000000 0.000000 0.000000
vn -1.000000 0.000000 0.000000
vn 0.000000 1.000000 0.000000
vn 0.000000 1.000000 0.000000
vn 0.000000 1.000000 0.000000
vn 0.000000 1.000000 0.000000
vn 0.000000 1.000000 0.000000
vn 0.000000 1.000000 0.000000
vn 0.000000 1.000000 0.000000
vn 0.000000 0.000000 -1.000000
vn 0.000000 0.000000 -1.000000
vn 0.000000 0.000000 -1.000000
vn 0.000000 0.000000 0.000000
vn -1.000000 0.000000 0.000000
vn -1.000000 0.000000 0.000000
vn -1.000000 0.000000 0.000000
vn 0.000000 0.000000 0.000000
vn 0.000000 1.000000 0.000001
vn 0.000000 1.000000 0.000001
vn 0.000000 1.000000 0.000001
vn 0.000000 1.000000 0.000001
vn 0.000000 0.000000 -1.000000
vn 0.000000 0.000000 -1.000000
vn 0.000000 0.000000 -1.000000
vn 0.000000 0.000000 -1.000000
vn -1.000000 0.000000 0.000000
vn -1.000000 0.000000 0.000000
vn -1.000000 0.000000 0.000000
vn -1.000000 0.000000 0.000000
vn -0.000001 1.000000 0.000000
vn -0.000001 1.000000 0.000000
vn -0.000001 1.000000 0.000000
vn 0.000000 0.000000 -1.000000
vn 0.000000 0.000000 -1.000000
vn 0.000000 0.000000 -1.000000
vn -1.000000 0.000000 0.000000
vn -1.000000 0.000000 0.000000
vn -1.000000 0.000000 0.000000
vn -0.714310 0.000000 -0.699829
vn -0.714310 0.000000 -0.699829
vn -0.714310 0.000000 -0.699829
vn -0.714310 0.000000 -0.699829
vn 0.700300 0.461899 0.544269
vn 0.700300 0.461899 0.544269
vn 0.700300 0.461899 0.544269
vn 0.700300 0.461899 0.544269
vn -0.752341 0.658774 -0.000002
vn -0.752341 0.658774 -0.000002
vn -0.752341 0.658774 -0.000002
vn -0.752341 0.658774 -0.000002
vn 0.609762 -0.539934 -0.580226
vn 0.609762 -0.539934 -0.580226
vn 0.609762 -0.539934 -0.580226
vn 0.609762 -0.539934 -0.580226
vn -0.000000 0.666384 -0.745609
vn -0.000000 0.666384 -0.745609
vn -0.000000 0.666383 -0.745609
vn -0.000000 0.666383 -0.745609
vn -0.544333 -0.630467 0.553365
vn -0.544333 -0.630467 0.553365
vn -0.544333 -0.630467 0.553365
vn -0.544333 -0.630467 0.553365
vn 0.000000 0.000000 -1.000000
vn 0.000000 0.000000 -1.000000
vn 0.000000 0.000000 -1.000000
vn 0.000000 0.000000 -1.000000
vn 0.000000 0.000000 -1.000000
vn 0.000000 0.000000 -1.000000
vn 0.000000 0.000000 -1.000000
vn -1.000000 0.000000 0.000000
vn -1.000000 0.000000 0.000000
vn -1.000000 0.000000 0.000000
vn -1.000000 0.000000 0.000000
vn -1.000000 0.000000 0.000000
vn -1.000000 0.000000 0.000000
vn -1.000000 0.000000 0.000000
vn -0.810814 -0.585304 0.000000
vn -0.810814 -0.585305 0.000000
vn -0.810814 -0.585304 0.000000
vn -0.810814 -0.585304 0.000000
vn 0.000000 0.585305 -0.810813
vn 0.000000 0.585305 -0.810813
vn 0.000000 0.585305 -0.810813
vn 0.000000 0.585305 -0.810813
vn 0.629803 0.454638 -0.629803
vn 0.629803 0.454638 -0.629803
vn 0.629803 0.454638 -0.629803
vn 0.629803 0.454638 -0.629803
vn -0.629803 0.454638 0.629803
vn -0.629803 0.454638 0.629803
vn -0.629803 0.454638 0.629803
vn -0.629803 0.454638 0.629803
vn -0.810814 0.585304 0.000000
vn -0.810814 0.585304 0.000000
vn -0.810814 0.585304 0.000000
vn -0.810814 0.585304 0.000000
vn 0.000000 -0.585305 -0.810814
vn 0.000000 -0.585305 -0.810814
vn 0.000000 -0.585305 -0.810814
vn 0.000000 -0.585305 -0.810814
vn -0.000000 1.000000 -0.000000
vn -0.000000 1.000000 -0.000000
vn 0.000000 1.000000 0.000000
vn 0.000000 1.000000 0.000000
vn 1.000000 0.000000 0.000000
vn 1.000000 0.000000 0.000000
vn 0.000000 0.000000 0.000000
vn 1.000000 0.000000 0.000000
vn 0.000000 -1.000000 0.000000
vn 0.000000 -1.000000 0.000000
vn 0.000000 -1.000000 0.000000
vn 0.000000 0.000000 1.000000
vn 0.000000 0.000000 1.000000
vn 0.000000 0.000000 1.000000
vn 0.000000 0.000000 0.000000
vn 0.000000 1.000000 0.000000
vn 0.000000 1.000000 0.000000
vn 0.000000 1.000000 0.000000
vn 0.000000 1.000000 0.000000
vn 0.000000 1.000000 0.000000
vn 0.000000 1.000000 0.000000
vn 0.000000 1.000000 0.000000
vn 0.000000 1.000000 0.000000
vn 1.000000 0.000000 0.000000
vn 1.000000 0.000000 0.000000
vn 1.000000 0.000000 0.000000
vn 1.000000 0.000000 0.000000
vn 0.000000 0.000000 1.000000
vn 0.000000 0.000000 1.000000
vn 0.000000 0.000000 1.000000
vn 0.000000 0.000000 1.000000
vn 0.000000 1.000000 0.000000
vn 0.000000 1.000000 0.000000
vn 0.000000 1.000000 0.000000
vn 0.000000 1.000000 0.000000
vn 0.000000 1.000000 0.000000
vn 0.000000 1.000000 0.000000
vn 0.000000 1.000000 0.000000
vn 0.000000 1.000000 0.000000
vn 1.000000 0.000000 0.000000
vn 1.000000 0.000000 0.000000
vn 1.000000 0.000000 0.000000
vn 1.000000 -0.000160 0.000000
vn 1.000000 0.000000 0.000000
vn 0.000000 0.000000 1.000000
vn 0.000000 0.000000 1.000000
vn 0.000000 0.000000 1.000000
vn 0.000000 0.000000 1.000000
vn 0.000000 1.000000 0.000000
vn 0.000000 1.000000 0.000000
vn 0.000000 1.000000 0.000000
vn 0.000000 1.000000 0.000000
vn 0.000000 1.000000 0.000000
vn 0.000000 1.000000 0.000000
vn 0.000000 1.000000 0.000000
vn 1.000000 0.000000 0.000000
vn 0.000000 0.000000 0.000000
vn 1.000000 0.000000 0.000000
vn 1.000000 0.000000 0.000000
vn 0.000000 0.000000 1.000000
vn 0.000000 0.000000 1.000000
vn 0.000000 0.000000 1.000000
vn 0.000000 0.000000 1.000000
vn 0.000000 1.000000 0.000000
vn 0.000000 1.000000 0.000000
vn 0.000000 1.000000 0.000000
vn 0.000000 1.000000 0.000000
vn 1.000000 0.000000 0.000000
vn 1.000000 0.000000 0.000000
vn 1.000000 0.000000 0.000000
vn 1.000000 0.000000 0.000000
vn 0.000000 0.000000 1.000000
vn 0.000000 0.000000 1.000000
vn 0.000000 0.000000 1.000000
vn 0.000000 0.000000 1.000000
vn 0.000000 1.000000 0.000000
vn 0.000000 1.000000 0.000000
vn 0.000000 1.000000 0.000000
vn 1.000000 0.000000 0.000000
vn 1.000000 0.000000 0.000000
vn 1.000000 0.000000 0.000000
vn 0.000000 0.000000 1.000000
vn 0.000000 0.000000 1.000000
vn 0.000000 0.000000 1.000000
vn 0.699831 0.000001 0.714309
vn 0.699831 0.000001 0.714309
vn 0.699831 0.000001 0.714309
vn 0.699830 0.000001 0.714309
vn -0.544268 0.461901 -0.700300
vn -0.544268 0.461901 -0.700300
vn -0.544268 0.461901 -0.700300
vn -0.544268 0.461901 -0.700300
vn -0.000002 0.658772 0.752342
vn -0.000002 0.658772 0.752342
vn -0.000002 0.658772 0.752342
vn -0.000002 0.658772 0.752342
vn 0.580222 -0.539934 -0.609765
vn 0.580222 -0.539934 -0.609765
vn 0.580222 -0.539934 -0.609765
vn 0.580222 -0.539934 -0.609765
vn 0.745609 0.666383 0.000009
vn 0.745609 0.666383 0.000009
vn 0.745609 0.666383 0.000009
vn 0.745609 0.666383 0.000009
vn -0.553365 -0.630466 0.544334
vn -0.553365 -0.630466 0.544334
vn -0.553365 -0.630466 0.544334
vn -0.553365 -0.630466 0.544334
vn 1.000000 0.000000 0.000000
vn 1.000000 0.000000 0.000000
vn 1.000000 0.000000 0.000000
vn 1.000000 0.000000 0.000000
vn 1.000000 0.000000 0.000000
vn 1.000000 0.000000 0.000000
vn 1.000000 0.000000 0.000000
vn 0.000000 0.000000 1.000000
vn 0.000000 0.000000 1.000000
vn 0.000000 0.000000 1.000000
vn 0.000000 0.000000 1.000000
vn 0.000000 0.000000 1.000000
vn 0.000000 0.000000 1.000000
vn 0.000000 0.000000 1.000000
vn 0.000000 -0.585305 0.810813
vn 0.000000 -0.585305 0.810813
vn 0.000000 -0.585305 0.810813
vn 0.000000 -0.585305 0.810813
vn 0.810814 0.585304 0.000000
vn 0.810814 0.585304 0.000000
vn 0.810814 0.585304 0.000000
vn 0.810814 0.585304 0.000000
vn 0.629803 0.454638 -0.629803
vn 0.629803 0.454638 -0.629803
vn 0.629803 0.454638 -0.629803
vn 0.629803 0.454638 -0.629803
vn -0.629804 0.454638 0.629803
vn -0.629804 0.454638 0.629803
vn -0.629804 0.454638 0.629803
vn -0.629804 0.454638 0.629803
vn 0.000000 0.585305 0.810813
vn 0.000000 0.585305 0.810813
vn 0.000000 0.585305 0.810813
vn 0.000000 0.585305 0.810813
vn 0.810814 -0.585304 0.000000
vn 0.810814 -0.585304 0.000000
vn 0.810814 -0.585304 0.000000
vn 0.810814 -0.585304 0.000000
vn -0.000000 1.000000 -0.000000
vn -0.000000 1.000000 -0.000000
vn -0.000000 1.000000 -0.000000
vn -0.000000 1.000000 -0.000000
vn 0.000000 0.000000 -1.000000
vn 0.000000 0.000000 -1.000000
vn -1.000000 0.000000 0.000000
vn -1.000000 0.000000 0.000000
vn 0.000000 0.000000 0.000000
vn 0.000000 0.000000 1.000000
vn 1.000000 0.000000 0.000000
vn 1.000000 0.000000 0.000000
vn 0.000000 1.000000 0.000000
vn 0.000000 1.000000 0.000000
vn 0.000000 1.000000 0.000000
vn 0.000000 1.000000 0.000000
vn 0.000000 1.000000 0.000000
vn 0.000000 1.000000 0.000000
vn 0.000000 1.000000 0.000000
vn 0.000000 1.000000 0.000000
vn 0.000000 1.000000 0.000000
vn 0.000000 1.000000 0.000000
vn 0.000000 1.000000 0.000000
s off
g Base_de_la_estatua:pCube1
usemtl Base_de_la_estatua:initialShadingGroup
f 3/1/1 4/2/2 6/3/3 5/4/4
f 5/4/5 6/3/6 1/5/7
f 5/6/8 1/7/9 2/8/10 3/9/11
f 4/2/12 3/1/13 9/10/14 8/11/15
f 3/1/16 2/8/17 7/12/18 9/10/19
f 8/11/20 9/10/21 12/13/22 11/14/23
f 9/10/24 7/12/25 10/15/26 12/13/27
f 11/14/28 12/13/29 15/16/30 14/17/31
f 12/13/32 10/15/33 13/18/34 15/16/35
f 14/17/36 15/16/37 18/19/38 17/20/39
f 15/16/40 13/18/41 16/21/42 18/19/43
s 1
f 17/20/44 18/19/45 39/23/46 37/24/47
s 2
f 41/27/48 16/21/49 19/26/50
s 3
f 20/25/51 37/24/52 26/31/53 23/32/54
s 4
f 27/34/55 41/27/56 19/26/57 22/33/58
s off
f 32/35/59 31/36/60 33/37/61 34/38/62
f 31/36/63 35/39/64 36/40/65 33/37/66
f 35/39/67 32/35/68 34/38/69 36/40/70
f 30/41/71 28/42/72 24/43/73
f 28/42/74 29/44/75 24/43/76
f 29/44/77 30/41/78 24/43/79
f 27/34/80 26/31/81 31/36/82 32/35/83
f 28/42/84 30/41/85 34/38/86 33/37/87
f 26/31/88 25/30/89 35/39/90 31/36/91
f 29/44/92 28/42/93 33/37/94 36/40/95
f 25/30/96 27/34/97 32/35/98 35/39/99
f 30/41/100 29/44/101 36/40/102 34/38/103
f 44/45/104 43/46/105 45/47/106 46/48/107
f 40/49/108 39/23/109 21/22/110
f 46/48/111 47/50/112 48/51/113 44/45/114
f 21/22/115 42/28/116 40/49/117
f 38/29/118 37/24/119 43/46/120 44/45/121
f 37/24/122 39/23/123 45/47/124 43/46/125
f 39/23/126 40/49/127 46/48/128 45/47/129
f 40/49/130 42/28/131 47/50/132 46/48/133
f 42/28/134 41/27/135 48/51/136 47/50/137
f 41/27/138 38/29/139 44/45/140 48/51/141
f 22/33/142 23/32/143 26/31/144 27/34/145
f 49/52/146 50/53/147 6/54/148 4/55/149
f 50/53/150 1/56/151 6/54/152
f 50/57/153 49/58/154 2/59/155 1/60/156
f 4/55/157 8/61/158 51/62/159 49/52/160
f 49/52/161 51/62/162 7/63/163 2/59/164
f 8/61/165 11/64/166 52/65/167 51/62/168
f 51/62/169 52/65/170 10/66/171 7/63/172
f 11/64/173 14/67/174 53/68/175 52/65/176
f 52/65/177 53/68/178 13/69/179 10/66/180
s 5
f 14/67/181 17/70/182 53/68/183
f 17/70/182 81/103/184 53/68/183
f 81/103/184 54/71/185 53/68/183
s off
f 53/68/186 54/71/187 16/72/188 13/69/189
s 6
f 17/70/190 20/73/191 69/74/192 81/103/193
s 7
f 54/71/194 55/76/195 74/77/196
s 8
f 20/73/197 23/80/198 58/81/199 69/74/200
s 9
f 70/83/201 57/82/202 59/84/203 73/78/204
s off
f 64/86/205 66/87/206 65/88/207 63/89/208
f 63/89/209 65/88/210 68/90/211 67/91/212
f 67/91/213 68/90/214 66/87/215 64/86/216
f 62/92/217 56/93/218 60/94/219
f 60/94/220 56/93/221 61/95/222
f 61/95/223 56/93/224 62/92/225
f 59/84/226 64/86/227 63/89/228 58/81/229
f 60/94/230 65/88/231 66/87/232 62/92/233
f 58/81/234 63/89/235 67/91/236 57/82/237
f 61/95/238 68/90/239 65/88/240 60/94/241
f 57/82/242 67/91/243 64/86/244 59/84/245
f 62/92/246 66/87/247 68/90/248 61/95/249
f 76/96/250 78/97/251 77/98/252 75/99/253
f 72/100/254 55/76/255 71/75/256
f 78/97/257 76/96/258 80/101/259 79/102/260
f 55/76/261 72/100/262 74/77/263
f 70/83/264 76/96/265 75/99/266 69/74/267
f 69/74/268 75/99/269 77/98/270 71/75/271
f 71/75/272 77/98/273 78/97/274 72/100/275
f 72/100/276 78/97/277 79/102/278 74/77/279
f 74/77/280 79/102/281 80/101/282 73/78/283
f 73/78/284 80/101/285 76/96/286 70/83/287
f 22/85/288 59/84/289 58/81/290 23/80/291
s 3
f 26/31/53 37/24/52 38/29/292 25/30/293
s 4
f 38/29/294 41/27/56 27/34/55 25/30/295
s 9
f 73/78/204 59/84/203 22/85/296 19/79/297
s 8
f 69/74/200 58/81/199 57/82/298 70/83/299
s 6
f 81/103/193 69/74/192 71/75/300 54/71/301
f 54/71/301 71/75/300 55/76/302
s 7
f 16/72/303 73/78/304 19/79/305
f 54/71/194 74/77/196 73/78/304 16/72/303
s 2
f 18/19/306 16/21/49 41/27/48 42/28/307
f 18/19/306 42/28/307 21/22/308
s 1
f 39/23/46 18/19/45 21/22/309
f 17/20/44 37/24/47 20/25/310
