# This file uses meters as units for non-parametric coordinates.

mtllib vallas.mtl
g default
v 4253.320850 -940.004517 2463.102863
v 3855.036684 -940.004517 2500.120583
v 4253.320850 -740.004517 2463.102863
v 3855.036684 -740.004517 2500.120583
v 3845.782378 -940.004517 2400.549716
v 3845.782378 -740.004517 2400.549716
v 4244.066544 -940.004517 2363.531996
v 4244.066544 -740.004517 2363.531996
vt 4.000000 1.000000
vt 0.000000 1.000000
vt 0.000000 -1.000000
vt 4.000000 -1.000000
vt 1.000000 1.000000
vt 0.000000 1.000000
vt 0.000000 -1.000000
vt 1.000000 -1.000000
vt 4.000000 1.000000
vt 0.000000 1.000000
vt 0.000000 -1.000000
vt 4.000000 -1.000000
vt 1.000000 1.000000
vt 0.000000 1.000000
vt 0.000000 -1.000000
vt 1.000000 -1.000000
vt 0.000000 0.000000
vt 4.000000 0.000000
vt 4.000000 1.000000
vt 0.000000 1.000000
vt 4.000000 1.000000
vt 0.000000 1.000000
vt 0.000000 0.000000
vt 4.000000 0.000000
vn 0.092544 0.000000 0.995709
vn 0.092544 0.000000 0.995709
vn 0.092544 0.000000 0.995709
vn 0.092544 0.000000 0.995709
vn -0.995709 -0.000000 0.092543
vn -0.995709 -0.000000 0.092543
vn -0.995709 -0.000000 0.092543
vn -0.995709 -0.000000 0.092543
vn -0.092543 0.000000 -0.995709
vn -0.092543 0.000000 -0.995709
vn -0.092543 0.000000 -0.995709
vn -0.092543 0.000000 -0.995709
vn 0.995709 0.000000 -0.092543
vn 0.995709 0.000000 -0.092543
vn 0.995709 0.000000 -0.092543
vn 0.995709 0.000000 -0.092543
vn -0.000000 1.000000 0.000000
vn -0.000000 1.000000 0.000000
vn -0.000000 1.000000 0.000000
vn -0.000000 1.000000 0.000000
vn 0.000000 -1.000000 -0.000000
vn 0.000000 -1.000000 -0.000000
vn 0.000000 -1.000000 -0.000000
vn 0.000000 -1.000000 -0.000000
s off
g polySurface66 polySurface61
usemtl initialShadingGroup
f 3/1/1 4/2/2 2/3/3 1/4/4
f 4/5/5 6/6/6 5/7/7 2/8/8
f 6/9/9 8/10/10 7/11/11 5/12/12
f 8/13/13 3/14/14 1/15/15 7/16/16
f 8/17/17 6/18/18 4/19/19 3/20/20
f 1/21/21 2/22/22 5/23/23 7/24/24
